<?xml version="1.0" encoding="utf-8" ?>
<svg xmlns="http://www.w3.org/2000/svg" xmlns:xlink="http://www.w3.org/1999/xlink" width="674" height="674">
	<path fill="#D400F1" transform="scale(1.31641 1.31641)" d="M439.46 103.309C445.418 109.884 437.745 111.151 432.684 110.782C434.219 110.17 435.798 110.639 437.39 110.389C440.921 109.836 438.859 105.419 439.46 103.309Z"/>
	<path fill="#D400F1" transform="scale(1.31641 1.31641)" d="M133.284 199.222C139.386 199.426 139.942 211.105 134.494 213.368C128.672 213.944 127.436 202.161 133.284 199.222Z"/>
	<path fill="#D400F1" transform="scale(1.31641 1.31641)" d="M416.892 223.804C421.103 224.192 424.322 237.284 416.892 239.283C410.54 238.96 411.606 224.952 416.892 223.804Z"/>
	<path fill="#D400F1" transform="scale(1.31641 1.31641)" d="M397.034 77.2756C405.849 76.8749 402.4 91.2289 399.75 92.8964C393.233 93.6106 392.126 79.6114 397.034 77.2756Z"/>
	<path fill="#D400F1" transform="scale(1.31641 1.31641)" d="M113.065 76.5186C120.226 76.3705 119.734 89.6841 114.708 91.7588C107.962 92.1566 107.852 79.1958 113.065 76.5186Z"/>
	<path fill="#D400F1" transform="scale(1.31641 1.31641)" d="M416.892 157.544C418.748 157.715 419.688 158.75 420.683 160.257L420.703 195.23C420.704 201.155 422.932 210.404 417.431 213.368C415.567 213.241 414.076 212.344 413.474 210.462C412.682 207.982 412.997 167.245 413.194 161.778C413.293 159.038 414.196 158.218 416.892 157.544Z"/>
	<path fill="#2400EE" transform="scale(1.31641 1.31641)" d="M133.284 223.804C136.849 223.718 137.573 224.996 137.713 228.592C137.946 234.609 138.055 284.616 137.473 286.075C136.899 287.511 135.874 288.018 134.494 288.542C132.852 288.555 131.181 288.067 130.474 286.416C129.644 284.48 129.856 233.853 130.109 227.684C130.217 225.045 130.676 224.508 133.284 223.804Z"/>
	<path fill="#D400F1" transform="scale(1.31641 1.31641)" d="M255.067 123.595C265.627 123.201 274.996 130.331 276.331 141.041C278.252 156.443 277.859 174.789 258.393 177.03C239.729 177.312 235.258 166.919 235.237 150.26C235.22 135.868 238.523 124.906 255.067 123.595ZM255.067 130.824C249.071 131.948 244.45 134.927 243.151 141.098C241.035 151.153 241.072 171.889 256.811 169.913C262.479 169.22 267.435 166.366 268.664 160.505C270.868 149.998 270.646 129.853 255.067 130.824Z"/>
	<defs>
		<linearGradient id="gradient_0" gradientUnits="userSpaceOnUse" x1="113.52336" y1="437.11472" x2="385.89468" y2="64.890701">
			<stop offset="0" stop-color="#2B0EFF"/>
			<stop offset="1" stop-color="#E603E8"/>
		</linearGradient>
	</defs>
	<path fill="url(#gradient_0)" transform="scale(1.31641 1.31641)" d="M172.887 103.309C175.755 93.5894 185.568 94.6219 193.628 94.6052C202.783 94.5862 208.455 93.4696 213.33 103.016L213.476 103.309L298.197 103.309C299.959 98.5861 303.951 95.5299 308.871 94.8419C319.185 93.3996 334.047 92.2653 338.911 103.309L429.283 103.303C432.622 103.302 436.143 103.033 439.46 103.309C438.859 105.419 440.921 109.836 437.39 110.389C435.798 110.639 434.219 110.17 432.684 110.782C422.462 110.999 412.206 110.77 401.98 110.782L401.977 420.943C401.977 424.738 402.149 428.614 401.961 432.401C401.804 435.567 398.492 438.222 395.844 435.357C393.649 432.983 394.895 400.376 394.894 395.208L394.887 110.782L340.224 110.782C339.519 113.691 338.466 116.494 337.082 119.15C343.123 122.552 339.381 131.864 338.522 138.028C333.895 171.202 329.555 196.204 292.782 210.201L292.798 257.312C292.871 270.059 291.113 266.575 296.116 278.036C299.831 286.545 303.86 294.912 307.623 303.399C313.133 315.828 312.414 314.105 312.38 327.971L312.368 376.128C312.365 382.783 313.624 393.373 307.98 398.318C298.654 411.726 275.905 405.64 273.294 389.716C272.32 383.773 272.915 374.1 272.916 367.806L272.915 324.84C269.837 320.144 262.285 310.816 258.393 306.593C258.551 315.846 258.393 325.125 258.394 334.381L258.398 389.359C258.396 399.588 257.97 409.985 258.393 420.194C253.338 434.099 237.26 439.833 225.82 429.744C216.298 421.347 219.345 400.661 219.345 388.803L219.374 263.303C219.352 260.205 218.201 252.007 220.445 249.651C227.859 241.865 226.749 263.263 226.74 264.614C246.22 264.612 265.737 264.878 285.213 264.614L285.21 222.174C285.207 219.438 284.754 207.934 285.343 206.082C286.519 202.382 317.363 196.945 326.803 164.385C328.995 156.824 329.631 148.555 330.818 140.766C332.653 128.726 337.28 122.883 322.751 119.812C319.882 127.269 314.875 164.985 313.029 167.207C312.954 167.297 304.64 171.493 302.662 172.83L293.629 178.936C291.623 180.27 287.111 183.939 284.6 183.326C282.624 182.844 281.049 180.62 281.825 178.614C283.095 175.329 303.4 163.242 306.649 161.784C309.358 147.594 311.648 133.262 314.76 119.15C307.231 119.182 300.52 119.378 298.197 110.782L213.476 110.782C211.06 118.262 204.946 119.729 197.743 119.15C200.628 132.642 203.863 148.078 205.074 161.784C209.521 164.177 233.036 176.718 231.239 181.426C228.373 188.935 209.844 172.913 205.762 170.39C203.418 168.941 199.255 169.007 198.414 166.044C194.573 152.519 194.751 136.175 190.037 120.8C185.116 120.491 181.277 119.938 178.934 125.123C184.457 156.237 181.193 181.601 213.969 199.256C217.951 201.401 222.536 202.577 226.347 204.919C227.241 206.2 226.749 230.993 226.74 234.592C225.354 236.7 222.784 238.685 220.461 236.241C218.396 234.068 219.316 228.622 219.323 225.922L219.353 210.201C200.274 199.514 187.226 194.27 179.162 170.209C175.544 159.415 170.376 122.416 171.513 110.782C161.127 110.77 150.723 110.956 140.339 110.782C132.843 110.895 125.333 110.794 117.835 110.782L117.844 417.909C117.847 420.215 119.342 443.31 111.494 435.678C109.362 433.605 110.17 427.914 110.173 425.235L110.188 110.782L84.6718 110.786C81.063 110.8 76.8411 111.291 73.2909 110.818C70.4831 110.443 68.8133 106.801 71.0672 104.708C73.4017 102.541 79.3929 103.326 82.2946 103.315L141.34 103.309L161.358 103.323C165.202 103.336 169.046 103.524 172.887 103.309ZM226.74 271.846L226.74 328.921C226.278 328.293 226.428 326.082 226.093 325.944C224.466 336.78 226.265 358.051 225.872 370.149C225.796 367.495 225.629 368.733 223.711 368.177C220.129 372.84 220.105 376.644 220.094 382.168L220.101 408.253C220.067 416.301 219.499 424.126 226.732 429.59C234.435 435.41 245.555 436.783 252.28 428.768C252.848 428.091 253.405 427.37 254.086 426.809C255.105 425.968 257.809 418.245 258.393 420.194C257.97 409.985 258.396 399.588 258.398 389.359L258.394 334.381C258.393 325.125 258.551 315.846 258.393 306.593C262.285 310.816 269.837 320.144 272.915 324.84L272.916 367.806C272.915 374.1 272.32 383.773 273.294 389.716C275.905 405.64 298.654 411.726 307.98 398.318C307.067 398.735 306.663 399.663 305.795 399.91C305.367 399.076 307.134 396.997 306.886 395.808C306.574 394.311 304.537 394.142 303.468 393.287L303.473 393.414C303.769 391.05 306.576 388.386 305.016 385.968C304.779 384.231 304.967 382.236 304.977 380.474L304.988 331.35C305.001 315.882 305.821 317.611 299.344 303.303C294.939 293.572 288.834 281.596 285.213 271.846C278.938 271.488 272.427 271.837 266.128 271.839L226.74 271.846ZM309.989 101.712C305.802 102.535 302.495 108.925 306.874 111.595C309.682 113.306 324 112.544 328.022 112.559C334.29 111.573 332.333 104.466 328.288 101.88L328.022 101.712L309.989 101.712ZM185.15 101.712C180.077 102.259 177.501 107.784 182.33 111.047C186.22 113.675 197.211 112.161 202.018 112.559C208.062 110.67 207.674 101.995 200.845 101.618C198.998 101.516 186.488 101.433 185.15 101.712Z"/>
	<path fill="#2400EE" transform="scale(1.31641 1.31641)" d="M226.74 328.921L226.729 407.04C226.732 413.294 225.887 419.385 230.73 424.219C235.666 429.147 243.798 428.508 248.282 423.284C252.537 418.325 251.148 409.8 251.14 403.784L251.116 304.995C251.107 302.183 250.544 295.735 251.32 293.381C253.797 285.869 265.56 303.746 266.779 305.235L275.841 316.317C277.332 318.174 278.965 320.016 280.219 322.041L280.202 379.131C280.2 384.676 279.738 390.466 283.935 394.787C292.045 403.135 303.721 397.116 305.016 385.968C306.576 388.386 303.769 391.05 303.473 393.414L303.468 393.287C304.537 394.142 306.574 394.311 306.886 395.808C307.134 396.997 305.367 399.076 305.795 399.91C306.663 399.663 307.067 398.735 307.98 398.318C298.654 411.726 275.905 405.64 273.294 389.716C272.32 383.773 272.915 374.1 272.916 367.806L272.915 324.84C269.837 320.144 262.285 310.816 258.393 306.593C258.551 315.846 258.393 325.125 258.394 334.381L258.398 389.359C258.396 399.588 257.97 409.985 258.393 420.194C257.809 418.245 255.105 425.968 254.086 426.809C253.405 427.37 252.848 428.091 252.28 428.768C245.555 436.783 234.435 435.41 226.732 429.59C219.499 424.126 220.067 416.301 220.101 408.253L220.094 382.168C220.105 376.644 220.129 372.84 223.711 368.177C225.629 368.733 225.796 367.495 225.872 370.149C226.265 358.051 224.466 336.78 226.093 325.944C226.428 326.082 226.278 328.293 226.74 328.921Z"/>
</svg>
